<?xml version="1.0" encoding="utf-8"?>
<!-- Generator: Adobe Illustrator 16.0.3, SVG Export Plug-In . SVG Version: 6.00 Build 0)  -->
<!DOCTYPE svg PUBLIC "-//W3C//DTD SVG 1.1//EN" "http://www.w3.org/Graphics/SVG/1.1/DTD/svg11.dtd">
<svg version="1.1" id="Warstwa_1" xmlns="http://www.w3.org/2000/svg" xmlns:xlink="http://www.w3.org/1999/xlink" x="0px" y="0px"
	 width="433.333px" height="174.666px" viewBox="0 0 433.333 174.666" enable-background="new 0 0 433.333 174.666"
	 xml:space="preserve">
<g>
	<path fill="#FFFFFF" d="M316.562,111.001c7.212,0,11.62-14.824,11.62-22.036c0-7.012-7.012-17.03-15.024-17.03
		c-7.212,0-27.448,17.431-27.448,30.853c0,0.895,0.114,1.786,0.296,2.672c-9.575,10.197-20.337,22.652-34.15,24.576
		c-3.406,0-3.406-5.008-3.406-7.813c0-2.204,0.2-4.608,0.801-7.013c3.005,2.004,6.211,4.208,10.018,4.208
		c9.818,0,21.036-9.817,21.036-20.437c0-8.214-9.214-20.234-19.032-20.234c-12.734,0-30.247,17.623-31.018,32.828
		c-6.676,11.865-15.162,26.578-25.275,36.691c0-1-0.2-1.402-0.2-1.802c1.402-24.843,12.421-48.285,21.438-71.925
		c0-0.4,0.2-0.6,0.399-1.002c13.224,0,26.647,0.202,39.87,1.002c2.004,0,2.604-0.4,2.604-2.004c0-2.804-1-5.008-2.604-7.212
		c-2.004-2.604-26.646-1.802-35.862-3.004c1.604-4.808,3.406-10.018,5.209-15.226c1.402-3.808,4.408-10.218,4.408-13.625
		c0-3.006-6.211-9.016-10.618-9.016c-3.808,0-13.824,26.646-17.832,35.462c-0.2,0.8-0.601,1.402-1.002,2.002
		c-10.418,0-21.036-0.6-31.455,0.602c-8.782,1.033-29.246,2.66-34.823,5.259c3.078-4.858,6.191-9.694,9.39-14.476
		c6.21-9.416,17.63-22.238,17.63-29.65c0-4.81-8.415-14.026-15.627-14.026c-1.402,0-2.604,0.402-3.806,1.404
		c-10.018,9.216-17.23,20.035-24.242,31.655c-12.623,21.036-24.844,42.472-36.063,64.511c-0.4,0.602-0.601,1.002-1.002,1.604
		c0,0-0.2,0-0.4-0.202c-0.201-25.844,3.205-54.292,7.613-80.339c0.601-4.006,2.003-8.814,2.003-12.822
		c0-6.01-9.817-10.818-16.628-10.818c-3.005,0-4.207,3.406-5.61,6.212C56.532,53.902,34.293,96.577,12.655,139.651
		c-3.405,6.612-8.414,15.828-8.414,21.437c0,4.208,7.613,8.816,12.622,8.816c2.003,0,4.407-0.802,5.81-3.206
		c18.833-30.253,34.259-62.107,48.885-94.364c0.2-0.6,0.4-1.402,1.202-2.002c0,8.814-0.201,17.83-0.201,26.846
		c0,18.431-0.2,36.263,2.605,54.293c0.801,5.41,11.019,8.816,17.43,8.816c2.003-0.2,2.804-1.002,3.205-2.806
		c0.601-5.009,4.007-12.021,7.012-17.431c12.866-23.801,26.012-47.331,40.327-70.099c0.441,3.114,3.236,6.989,6.544,6.989
		c0.201,0,0.401,0,0.601,0c17.43-1.802,34.86-2.804,52.491-3.406c0.401,0,1.002,0.202,1.603,0.202c-0.2,0.6-0.4,0.8-0.601,1
		c-5.81,9.216-17.029,28.25-30.452,28.25c-6.611,0-9.817,5.208-11.219,11.018c-3.807,11.62-5.61,18.032-16.028,21.437
		c-0.801-3.204-1.202-5.408-1.202-8.414c0-7.612,8.815-31.254,18.432-31.254c0.801,0,2.604,1.201,4.007,1.403
		c1.202,0,2.404-0.602,2.404-1.804c0-5.208-10.017-10.618-15.226-10.618c-12.622,0-27.849,22.038-27.849,37.465
		c0,11.819,12.623,24.242,24.843,24.242c8.415,0,18.632-7.212,21.237-16.028c1.202-4.206,1.002-19.834,6.611-19.834
		c0.601,0,1.403,0,2.004,0c3.606,0,7.012-0.601,10.217-2.204c0.201,0,0.401-0.2,0.601-0.2c0,0.2,0.201,0.2,0.201,0.399
		c-3.406,10.019-6.211,20.637-6.211,31.455c0,12.622,7.012,19.834,20.235,19.834c11.264,0,20.625-17.704,28.452-34.081
		c4.863,7.156,13.076,13.045,22.231,13.045c13.635,0,24.633-12.294,34.089-23.778c2.832,3.313,6.36,6.161,9.583,8.152
		c-0.603,3.405-3.406,6.41-6.813,6.41c-2.806,0-4.206-4.406-7.414-4.406c-0.6,0-1,0.399-1,1.401
		c0,6.813,10.017,15.427,17.028,15.427c7.414,0,12.223-6.41,12.223-12.422c0-7.412-7.013-13.822-13.423-18.23
		c0.601-6.813,10.217-22.038,15.627-24.845c-0.603,4.811-8.215,15.429-8.215,21.038C308.75,109.399,313.758,111.001,316.562,111.001
		z M267.881,92.771c-0.601,5.81-10.217,15.426-15.627,15.825C255.861,101.787,260.469,95.977,267.881,92.771z"/>
	<path fill="#FFFFFF" d="M353.021,80.549c0,0,0.802,0,1.002,0c1.604,0,16.028-24.442,16.028-24.442
		c0-4.608-8.616-9.417-13.024-10.216c-1.603,1.202-3.404,1.402-4.608,3.806c-3.604,7.012-9.616,16.028-9.616,21.838
		C342.802,75.94,348.814,79.547,353.021,80.549z"/>
	<path fill="#FFFFFF" d="M422.94,99.983c-0.805,0-1.404,0.602-2.204,1.602c-5.41,7.814-16.631,23.442-27.648,23.442
		c-1.805,0-2.404-3.406-2.404-5.811c0-5.609,1.603-6.012,4.408-6.012c10.216,0,17.828-10.418,17.828-20.635
		c0-5.81-5.208-13.624-11.418-13.624c-4.408,0-12.022,9.215-15.826,13.825c0,0-0.202,0-0.202-0.201
		c6.41-12.822,11.822-26.446,18.232-39.468c1.802-3.806,5.61-9.818,5.61-12.622s-5.41-9.216-9.616-9.216
		c-1.204,0-2.204,0.602-3.208,2.004c-15.024,19.634-25.443,44.077-34.459,66.915c-0.818,1.995-1.662,4.134-2.467,6.35
		c-2.342,3.075-4.602,6.447-5.943,8.077c-5.813,7.012-11.42,14.424-17.23,20.034c0-11.82,7.212-24.242,12.223-35.261
		c0.399-1.002,0.6-1.604,0.6-2.204c0-2.806-6.012-7.012-9.416-7.012c-7.212,0-17.03,22.638-18.832,28.849
		c-0.603,2.004-1.002,4.208-1.002,6.212c0,10.418,9.014,18.832,18.63,18.832c5.707,0,12.084-6.347,17.749-13.944
		c1.72,3.408,5.203,6.933,8.896,6.933c2.604,0,9.816-13.225,13.624-17.631c4.809,7.412,10.017,14.624,20.032,14.624
		c13.425,0,21.438-16.828,29.453-28.248c0.399-0.602,0.6-1.002,0.6-1.402C428.948,103.189,424.339,99.983,422.94,99.983z"/>
</g>
</svg>
